<?xml version="1.0" encoding="utf-8"?>
<!-- Generator: Adobe Illustrator 27.4.0, SVG Export Plug-In . SVG Version: 6.00 Build 0)  -->
<svg version="1.1" id="layer_1" xmlns="http://www.w3.org/2000/svg" xmlns:xlink="http://www.w3.org/1999/xlink" x="0px"
	 y="0px" viewBox="0 0 1000 1000" style="enable-background:new 0 0 1000 1000;" xml:space="preserve">
<style type="text/css">
	.st1{fill:#FFFFFF;}
</style>
<g>
	<polygon class="st1" points="258.36,575.89 244.96,595.03 467.7,817.77 512.48,753.82 	"/>
	<polygon class="st1" points="439.22,210.85 451.28,219.29 499.17,150.89 	"/>
	<polygon class="st1" points="220.26,549.21 150.03,500.03 150,500.06 211.57,561.63 	"/>
	<polygon class="st1" points="246.94,511.12 424.6,257.39 405.82,244.24 183.42,466.64 	"/>
	
	<rect x="346.06" y="344.79" transform="matrix(0.5736 -0.8192 0.8192 0.5736 -195.8836 623.5023)" class="st1" width="309.74" height="310.22"/>
	<polygon class="st1" points="550.58,780.5 502.53,849.11 562.67,788.97 	"/>
	<polygon class="st1" points="743.49,423.9 756.64,405.12 533.9,182.38 489.38,245.97 	"/>
	<polygon class="st1" points="781.59,450.58 850,498.48 790.04,438.52 	"/>
	<polygon class="st1" points="754.91,488.68 577.25,742.4 596.07,755.58 818.47,533.18 	"/>
</g>
</svg>
